<?xml version="1.0" standalone="no"?>
<!DOCTYPE svg PUBLIC "-//W3C//DTD SVG 20010904//EN"
 "http://www.w3.org/TR/2001/REC-SVG-20010904/DTD/svg10.dtd">
<svg version="1.0" xmlns="http://www.w3.org/2000/svg"
 width="1920.000000pt" height="1920.000000pt" viewBox="0 0 1920.000000 1920.000000"
 preserveAspectRatio="xMidYMid meet">
<metadata>
Created by potrace 1.14, written by Peter Selinger 2001-2017
</metadata>
<g transform="translate(0.000000,1920.000000) scale(0.100000,-0.100000)"
fill="#000000" stroke="none">
<path d="M9238 19195 c-2 -2 -68 -6 -148 -9 -80 -4 -161 -8 -180 -11 -19 -2
-79 -7 -133 -10 -54 -4 -106 -8 -115 -10 -9 -1 -53 -6 -96 -10 -43 -4 -86 -8
-95 -10 -9 -2 -44 -6 -76 -10 -33 -4 -71 -8 -85 -10 -111 -17 -300 -46 -320
-49 -14 -3 -54 -10 -90 -16 -36 -6 -108 -20 -160 -30 -52 -11 -106 -21 -120
-24 -14 -3 -58 -12 -98 -21 -62 -13 -102 -23 -212 -49 -8 -2 -60 -16 -115 -31
-55 -14 -118 -31 -140 -36 -22 -6 -69 -19 -105 -30 -36 -11 -76 -23 -90 -25
-76 -15 -752 -252 -865 -304 -11 -5 -96 -41 -190 -80 -166 -71 -656 -308 -805
-391 -41 -23 -129 -73 -195 -111 -66 -39 -134 -79 -152 -89 -129 -74 -510
-325 -660 -435 -183 -134 -502 -381 -533 -414 -3 -3 -48 -41 -100 -85 -52 -44
-104 -89 -116 -100 -12 -11 -61 -56 -110 -99 -96 -86 -511 -499 -609 -606 -69
-76 -163 -182 -225 -255 -23 -27 -52 -61 -64 -75 -280 -329 -698 -919 -896
-1264 -10 -17 -37 -65 -60 -106 -24 -41 -50 -86 -58 -100 -9 -14 -15 -27 -15
-30 0 -3 -7 -17 -18 -31 -23 -32 -260 -500 -321 -635 -26 -55 -72 -161 -103
-235 -31 -73 -60 -143 -65 -154 -16 -33 -109 -282 -157 -415 -90 -254 -243
-767 -259 -870 -3 -19 -11 -44 -17 -55 -6 -11 -9 -21 -8 -23 1 -1 0 -15 -3
-30 -4 -15 -8 -36 -10 -47 -2 -11 -11 -50 -20 -86 -44 -191 -121 -623 -140
-794 -4 -27 -8 -61 -10 -75 -3 -14 -7 -50 -10 -80 -10 -95 -17 -164 -21 -195
-4 -27 -10 -99 -20 -236 -27 -362 -27 -1190 0 -1383 2 -17 7 -71 10 -121 9
-135 13 -174 41 -400 3 -27 7 -61 9 -75 4 -39 21 -155 30 -207 24 -150 47
-278 49 -282 2 -3 7 -28 10 -56 4 -27 12 -70 17 -95 6 -25 13 -56 15 -70 3
-14 9 -41 14 -60 5 -19 11 -48 14 -65 8 -42 73 -306 97 -390 10 -38 24 -86 29
-105 193 -692 505 -1443 859 -2075 134 -238 374 -616 571 -899 124 -178 457
-595 620 -776 18 -19 75 -83 128 -142 98 -109 432 -443 553 -553 135 -124 226
-204 299 -265 73 -61 93 -77 215 -177 235 -192 669 -500 920 -653 159 -97 334
-200 400 -235 39 -20 75 -41 80 -45 15 -12 447 -230 560 -282 406 -189 862
-361 1290 -489 17 -4 59 -17 95 -29 71 -22 438 -116 510 -130 25 -5 77 -16
115 -25 99 -22 313 -63 360 -70 22 -4 76 -12 120 -20 44 -8 100 -17 125 -20
25 -3 56 -8 70 -10 14 -3 44 -7 68 -10 23 -3 60 -7 82 -10 135 -17 242 -28
390 -40 47 -3 103 -8 125 -10 277 -27 1063 -27 1380 0 28 2 84 7 125 10 121
11 163 15 200 20 19 3 60 7 90 10 76 8 198 23 310 40 14 2 45 7 70 10 25 4 68
11 95 16 28 6 68 12 90 15 127 17 660 137 850 191 50 14 95 26 100 27 20 5
131 38 155 46 23 8 228 73 240 76 3 0 12 3 20 6 8 3 58 21 110 39 121 41 400
145 455 169 11 5 65 28 120 51 55 23 127 54 160 69 33 15 83 38 110 50 205 92
627 309 780 402 17 10 37 21 45 25 8 3 17 9 20 12 3 3 25 17 50 30 94 51 501
311 528 338 8 7 23 18 35 24 33 18 293 206 402 292 55 43 116 90 135 105 46
36 224 184 230 191 3 4 21 19 40 35 45 37 167 144 250 221 148 136 539 534
641 652 15 17 49 55 75 85 195 218 480 583 655 836 151 219 358 546 457 722
10 19 29 51 40 70 91 155 321 617 423 852 145 334 304 766 384 1043 10 33 28
94 41 135 27 89 33 112 39 137 2 10 25 99 50 198 25 99 50 200 55 225 5 25 12
56 14 69 48 229 85 433 115 641 24 164 34 246 45 360 4 36 9 76 11 90 2 14 7
67 10 119 4 51 8 110 10 130 13 127 20 366 19 701 0 343 -4 472 -19 685 -7 95
-32 364 -40 425 -7 58 -17 134 -20 160 -1 14 -5 43 -9 65 -4 22 -9 58 -11 79
-3 22 -7 51 -10 65 -2 14 -14 82 -25 150 -12 69 -23 127 -24 130 -2 3 -7 29
-10 56 -4 28 -13 77 -21 110 -8 33 -19 87 -26 120 -7 33 -14 65 -15 70 -2 6
-6 24 -9 40 -10 47 -90 357 -129 495 -60 217 -243 753 -301 885 -8 17 -43 100
-78 185 -96 230 -138 319 -277 595 -109 215 -165 318 -309 568 -68 118 -268
428 -381 592 -121 174 -443 596 -505 661 -5 6 -30 35 -55 64 -153 183 -297
338 -529 570 -253 252 -357 350 -525 493 -12 10 -45 39 -75 65 -30 26 -64 54
-75 62 -12 8 -27 20 -34 27 -28 27 -331 262 -452 350 -164 119 -433 299 -595
398 -157 97 -166 102 -185 111 -8 4 -43 25 -78 46 -34 21 -64 38 -66 38 -3 0
-42 22 -88 48 -165 95 -606 311 -823 402 -55 23 -124 53 -153 66 -29 13 -57
24 -62 24 -6 0 -18 5 -28 10 -80 47 -699 255 -1012 340 -197 54 -314 83 -424
106 -11 2 -74 15 -140 29 -67 14 -141 30 -166 35 -25 6 -58 12 -75 14 -16 3
-98 16 -180 30 -83 14 -171 28 -195 31 -25 3 -56 7 -70 10 -14 2 -54 7 -90 11
-36 3 -72 7 -80 9 -15 3 -77 10 -190 21 -109 10 -147 13 -250 19 -58 4 -125 9
-150 11 -51 5 -887 14 -892 9z"/>
</g>
</svg>
